<?xml version="1.0" encoding="UTF-8" standalone="no"?>
<!DOCTYPE svg PUBLIC "-//W3C//DTD SVG 1.1//EN" "http://www.w3.org/Graphics/SVG/1.1/DTD/svg11.dtd">
<svg xmlns="http://www.w3.org/2000/svg" version="1.1" viewBox="0.00 0.00 477.00 485.00">
<g fill="#d27d00">
<path d="
  M 182.21 371.43
  C 183.32 373.88 180.33 376.33 178.47 377.28
  C 173.00 380.05 166.11 380.93 159.78 381.08
  Q 138.25 381.59 113.68 381.40
  Q 92.27 381.23 74.25 377.24
  Q 66.79 375.59 58.27 371.94
  C 50.50 368.60 40.57 362.27 36.11 354.68
  Q 24.58 335.06 17.34 313.87
  Q -5.14 248.07 11.42 181.27
  Q 22.81 135.29 51.26 97.64
  Q 97.06 37.03 169.93 13.92
  Q 171.58 13.39 173.33 12.97
  C 174.92 12.59 176.47 11.99 178.04 11.57
  Q 225.94 -0.97 273.57 6.32
  C 311.20 12.08 347.71 27.21 378.44 50.50
  Q 430.33 89.83 455.19 149.90
  Q 459.04 159.19 461.91 168.74
  Q 478.38 223.45 468.80 277.72
  Q 461.49 319.13 440.78 354.37
  Q 438.26 358.66 433.77 362.45
  C 422.99 371.55 408.81 376.48 394.99 378.68
  Q 377.59 381.46 359.35 381.50
  Q 335.31 381.56 315.22 380.99
  C 311.41 380.89 291.98 378.90 294.63 371.27
  C 296.77 365.11 310.94 360.74 316.44 358.39
  C 336.95 349.63 355.36 336.72 369.33 319.70
  Q 396.18 287.00 397.77 241.97
  Q 398.41 224.10 394.88 207.02
  Q 391.34 189.83 383.66 174.95
  C 371.95 152.25 353.30 134.02 330.81 121.42
  Q 312.72 111.28 293.46 106.01
  Q 244.50 92.61 194.64 103.11
  C 169.48 108.41 143.87 119.72 124.03 136.54
  Q 94.18 161.86 83.99 198.30
  Q 76.66 224.52 79.77 252.61
  Q 85.88 307.86 130.10 341.17
  Q 144.07 351.69 161.86 359.00
  C 168.10 361.56 173.90 363.56 179.19 367.59
  Q 181.14 369.07 182.21 371.43
  Z"
/>
<path d="
  M 132.36 445.89
  Q 132.28 445.84 132.19 445.83
  Q 131.98 445.82 131.80 445.73
  Q 110.21 434.52 91.31 419.21
  Q 90.75 418.75 91.47 418.75
  Q 138.08 418.71 182.76 418.76
  C 194.95 418.78 204.27 410.56 208.42 399.43
  Q 211.32 391.65 210.41 383.20
  Q 208.23 362.90 190.28 352.90
  Q 181.22 347.85 174.46 343.42
  C 149.88 327.31 137.75 299.69 133.95 270.60
  C 130.78 246.34 131.48 222.60 137.61 199.15
  Q 142.15 181.84 151.04 166.28
  C 166.19 139.76 190.46 121.51 220.92 116.74
  C 242.42 113.37 265.13 116.02 284.54 125.99
  C 323.75 146.13 342.44 190.76 344.38 232.82
  Q 345.27 252.14 342.86 270.27
  C 338.69 301.69 325.70 329.87 298.21 345.99
  Q 291.25 350.07 284.18 354.33
  Q 270.47 362.59 267.12 378.58
  Q 263.07 397.94 275.99 411.33
  Q 280.29 415.78 286.03 417.59
  Q 290.06 418.86 296.92 418.83
  Q 338.89 418.64 385.36 418.78
  Q 386.00 418.78 385.50 419.18
  Q 344.10 452.60 292.61 465.13
  Q 282.49 467.59 272.99 468.94
  Q 200.38 479.27 135.06 447.36
  Q 133.70 446.70 132.36 445.89
  Z"
/>
</g>
</svg>
